<?xml version="1.0" encoding="UTF-8"?>
<svg id="Layer_1" xmlns="http://www.w3.org/2000/svg" version="1.1" viewBox="0 0 1560.89 581.33">
  <!-- Generator: Adobe Illustrator 30.0.0, SVG Export Plug-In . SVG Version: 2.1.1 Build 123)  -->
  <defs>
    <style>
      .st0 {
        fill: #fcfdfc;
      }

      .st1 {
        fill: #082947;
      }

      .st2 {
        fill: #f3f7f6;
      }

      .st3 {
        fill: #fff;
      }

      .st4 {
        fill: #fdfefd;
      }

      .st5 {
        fill: #dd8938;
      }

      .st6 {
        fill: none;
        stroke: #fff;
        stroke-miterlimit: 10;
        stroke-width: 25px;
      }

      .st7 {
        fill: #1b466c;
      }

      .st8 {
        fill: #0e2d48;
      }
    </style>
  </defs>
  <rect class="st4" x="59.33" y="670.71" width="2.04" height="4.09" transform="translate(-2.11 .19) rotate(-.18)"/>
  <rect class="st3" x="368.41" y="346.64" width="37.93" height="118.38" rx="12" ry="12" transform="translate(-173.51 392.78) rotate(-45)"/>
  <path class="st0" d="M271.69,404.82c-.87,1.11-1.95.83-3.06,1.02v-2.03c2.54-.79,2.88,1.01,3.06,1.01Z"/>
  <g>
    <path class="st0" d="M319.17,335.96c.04,3.01-4.69,3.01-4.65,0-.04-3.01,4.69-3.01,4.65,0Z"/>
    <path class="st8" d="M131.99,180.32c4.8-7.48,9.13-15.46,15.38-21.89l50.68-23.81c22.15,12.6,40.69,10.55,62.67.17,17.44,8.15,36.13,14.93,52.09,25.59,3.88,5.84,41.07,52.29,34.68,59.22l-37.48,26.86c-7.93,2.2-10.2-9.07-15.6-13.06l.04,99.57-2.1,6.59c-41.79-.35-83.93.7-125.65-.53l-2.02-2.54c-1.56-.31,4.25-109.48-1.02-103.1-4.82,3.96-7.45,14.47-14.74,13.26l-38.06-26.82c-5.09-6.34,8.1-16.89,9.9-24.2,2.42,1.35,9.04-12.93,11.24-15.31h0ZM279.07,162.97c7.74,1.05,21.07,16,22.4,1.1l-37.21-17.41c-5.34,14.72-20.5,33.28-37.54,32.4-13.47-2.18-29.16-19.19-31.92-32.44l-38.25,17.42,3.04,8.12,17.35-8.17c-2.82,3.93-14,5.15-15.33,9.65,21.4,48.15,9.24,104.24,12.26,155.71h110.31c1.89-33.77-7.4-126.45,13.02-155.68-.09-1.07-15.62-9.42-18.13-10.7h0ZM251.48,149.71c-10.01,2.77-20.7,4.07-31.14,3.05-4.65-.45-9.06-3.18-13.81-2.53,1.32,6.73,16.61,20.29,22.91,19.89s21.72-13.11,22.03-20.4h0ZM307.66,225.24c-1.17.88-2.5,2.74-4.07,3.57l6.17,6.24,27.34-20.52c-1.77-1.94-2.91-6.15-6.2-5.47l-23.23,16.18c2.53-1.1,6.36-6.24,8.54-7.79,4.49-3.72,12.09-5.7,14.81-11.27l-21.32-34.01c-3.77-2.56-15.36,37.92-15.17,42.42.11,2.54,6.5,10.99,8.68,11.44,1.23-.38,3.52-.37,4.46-.78h0ZM137.1,215.03c-3.27-2.3-8.24-4.66-11.68-7.14l-4.56,6.63,28.04,20.88,5.15-6.03c.21-.83-1.07-2.67-1.62-3.12,4.25,1.93,11.17-9.22,11.33-11.72-.4-10.02-8.46-32.66-13.49-40.21-1.01-.58-2.74-.16-3.44.92l-19.79,30.33.32,2.32,9.75,7.14h0Z"/>
    <path class="st1" d="M164.67,336.5l-1.02-103.1c5.18-7.23-.43,103.94,1.02,103.1Z"/>
    <path class="st7" d="M179.99,162.97c1.79-.94,8.49-5.74,10.26-4.66,5.05,12.15,26.04,30.32,39.3,30.19,12.34-.11,34.99-18.32,38.3-30.64,7.69,2.91,23.93,11.34,29.35,15.81-20.38,28.78-11.17,122.43-13.02,155.68h-110.31c-3.03-51.46,9.14-107.58-12.26-155.71.81-4.1,15.92-9.57,18.39-10.67h-.01ZM272.94,198.7h-24.51v16.84c0,3.17,8.92,11.25,11.91,11.54,2.7.26,12.61-8.22,12.61-10.52v-17.86h0Z"/>
    <path class="st2" d="M176.93,163.99l-17.35,8.17-3.04-8.12,38.25-17.42c2.76,13.26,18.46,30.27,31.92,32.44,17.06.86,32.18-17.66,37.54-32.4l37.21,17.41c-1.33,14.9-14.65-.05-22.4-1.1-3.66-1.87-7.33-3.74-11.22-5.11-3.31,12.32-25.96,30.52-38.3,30.64-13.26.12-34.25-18.04-39.3-30.19-3.49-1.02-9.73,5.74-13.32,5.68h.01Z"/>
    <path class="st7" d="M137.1,215.03l-9.75-7.14-.32-2.32,19.79-30.33c.7-1.08,2.43-1.5,3.44-.92,5.05,7.64,13.07,30.11,13.49,40.21-.15,2.5-7.08,13.64-11.33,11.72-3.71-3.04-11.18-8.32-15.32-11.23h0Z"/>
    <path class="st7" d="M307.66,225.24c-.94.41-3.24.4-4.46.78-2.17-.45-8.57-8.89-8.68-11.44-.19-4.5,11.39-44.98,15.17-42.42l21.32,34.01c-2.72,5.57-10.32,7.55-14.81,11.27-2.18,1.56-6.01,6.69-8.54,7.79h0Z"/>
    <path class="st5" d="M251.48,149.71c-.31,7.29-15.53,19.98-22.03,20.4s-21.59-13.16-22.91-19.89c4.74-.65,9.16,2.08,13.81,2.53,10.44,1.02,21.13-.28,31.14-3.05h0Z"/>
    <path class="st5" d="M137.1,215.03c4.22,3.79,15.66,9.11,16.94,14.35l-5.15,6.03-28.04-20.88,4.56-6.63c3.44,2.48,8.41,4.84,11.68,7.14h0Z"/>
    <path class="st5" d="M307.66,225.24l23.23-16.18c3.29-.68,4.43,3.53,6.2,5.47l-27.34,20.52-6.17-6.24c1.57-.83,2.9-2.69,4.07-3.57h0Z"/>
    <path class="st2" d="M272.94,198.7v17.86c0,2.3-9.91,10.77-12.61,10.52-2.98-.28-11.91-8.37-11.91-11.54v-16.84h24.52Z"/>
    <path class="st8" d="M179.99,162.97l-2.04,1.02c.68-.35,1.39-.68,2.04-1.02Z"/>
  </g>
  <path class="st3" d="M503.57,472.67c-25.21-28.79-57.41-54.61-83.29-83.14-6.74-5.71-15.67-5.48-22.87-1.1-7.44,8.75-17.1,19.18-29.03,29.98l.17.17c-5.99,6.13-7.11,15.48-1.86,22.46l89.86,89.84c40.06,26.18,79.69-20.91,47.02-58.22h0ZM484.59,489.59l-80.13-81.25c-.71-2.76,1.01-6.61,3.81-7.42,1.75-.51,3.48-.44,4.94.79l80.17,80.12c3.58,5.89-3.27,11.21-8.79,7.76Z"/>
  <path class="st2" d="M413.21,401.7c-1.46-1.22-3.18-1.3-4.94-.79-2.8.81-4.52,4.66-3.81,7.42l80.13,81.25c5.52,3.45,12.37-1.87,8.79-7.76l-80.17-80.12h0Z"/>
  <circle class="st6" cx="228.95" cy="237.14" r="185.2"/>
  <g>
    <path class="st3" d="M459.28,191.25h9.93v117.92h.62l104.26-117.92h12.41l-65.78,75.09,74.47,129.71h-11.79l-70.13-122.26-44.06,49.65v72.61h-9.93v-204.8h0Z"/>
    <path class="st3" d="M629.94,191.25h9.93v204.8h-9.93v-204.8h0Z"/>
    <path class="st3" d="M746.61,199.94h-66.41v-8.69h142.74v8.69h-66.4v196.11h-9.93v-196.11h0Z"/>
    <g>
      <path class="st3" d="M802.18,370.61l27.93-34.75c14.27,11.79,33.51,18,49.65,18s22.96-5.28,22.96-14.27c0-9.62-10.24-12.72-27.31-19.55l-25.13-10.55c-21.72-8.69-40.65-27-40.65-56.17,0-34.44,31.03-62.68,75.09-62.68,24.2,0,48.72,8.69,67.03,25.44l-27.93,34.75c-13.65-9.31-27.31-14.27-39.1-14.27-13.03,0-21.1,4.66-21.1,13.65,0,9.62,11.48,13.03,29.79,20.17l24.51,9.62c25.13,9.93,39.41,27.31,39.41,55.23,0,34.13-28.55,64.54-78.82,64.54-26.69,0-54.61-8.69-76.33-29.17h0Z"/>
      <path class="st3" d="M989.6,194.35h73.85c44.06,0,81.92,16.14,81.92,67.03s-38.48,70.75-80.68,70.75h-21.72v63.92h-53.37v-201.7h0ZM1062.21,289.93c21.1,0,31.03-10.55,31.03-28.55s-11.79-24.82-32.27-24.82h-18v53.37h19.24Z"/>
      <path class="st3" d="M1169.57,294.27c0-66.4,37.86-103.64,93.71-103.64s93.71,37.55,93.71,103.64-37.86,105.5-93.71,105.5-93.71-39.1-93.71-105.5ZM1302.38,294.27c0-36.62-14.89-57.72-39.1-57.72s-39.1,21.1-39.1,57.72,14.89,59.58,39.1,59.58,39.1-22.96,39.1-59.58h0Z"/>
      <path class="st3" d="M1422.15,239.04h-53.37v-44.68h160.12v44.68h-53.37v157.01h-53.37v-157.01h-.01Z"/>
    </g>
  </g>
</svg>