<?xml version="1.0" encoding="UTF-8"?>
<svg id="Layer_1" xmlns="http://www.w3.org/2000/svg" version="1.1" viewBox="0 0 500 500">
  <!-- Generator: Adobe Illustrator 30.0.0, SVG Export Plug-In . SVG Version: 2.1.1 Build 123)  -->
  <defs>
    <style>
      .st0 {
        fill: #fcfdfc;
      }

      .st1 {
        fill: #082947;
      }

      .st2 {
        fill: #f3f7f6;
      }

      .st3 {
        fill: none;
        stroke: #001e40;
        stroke-miterlimit: 10;
        stroke-width: 25px;
      }

      .st4 {
        fill: #0a2a47;
      }

      .st5 {
        fill: #dd8938;
      }

      .st6 {
        fill: #1b466c;
      }

      .st7 {
        fill: #0e2d48;
      }
    </style>
  </defs>
  <rect class="st4" x="290.12" y="325.85" width="97.95" height="31.38" rx="12" ry="12" transform="translate(340.82 -139.74) rotate(45)"/>
  <path class="st0" d="M243.37,340.69c-.72.91-1.61.69-2.54.84v-1.68c2.1-.66,2.38.83,2.54.84Z"/>
  <g>
    <path class="st7" d="M127.78,154.95c3.97-6.19,7.55-12.79,12.72-18.11l41.93-19.7c18.33,10.43,33.67,8.73,51.86.14,14.43,6.74,29.89,12.35,43.1,21.18,3.21,4.83,33.98,43.27,28.69,49,0,0-31.01,22.23-31.01,22.23-6.56,1.82-8.44-7.5-12.91-10.81l.04,82.38-1.73,5.45c-34.58-.29-69.45.58-103.96-.43l-1.67-2.1c-1.29-.25,3.51-90.58-.84-85.31-3.99,3.28-6.16,11.97-12.2,10.97l-31.49-22.19c-4.21-5.25,6.7-13.97,8.19-20.03,2,1.12,7.48-10.7,9.3-12.67ZM249.47,140.59c6.41.87,17.43,13.24,18.53.91l-30.79-14.41c-4.41,12.18-16.96,27.54-31.06,26.81-11.14-1.8-24.13-15.87-26.41-26.84l-31.64,14.41,2.52,6.72,14.35-6.76c-2.33,3.25-11.59,4.26-12.68,7.99,17.71,39.84,7.64,86.25,10.15,128.84h91.27c1.56-27.94-6.12-104.62,10.78-128.81-.07-.89-12.92-7.8-15-8.86ZM226.65,129.61c-8.28,2.29-17.13,3.37-25.76,2.52-3.84-.38-7.5-2.63-11.42-2.1,1.09,5.57,13.74,16.79,18.96,16.45,5.38-.35,17.97-10.84,18.23-16.88ZM273.14,192.11c-.97.73-2.07,2.27-3.37,2.95l5.1,5.16,22.62-16.98c-1.47-1.61-2.41-5.09-5.13-4.53l-19.22,13.39c2.09-.91,5.26-5.16,7.06-6.45,3.71-3.08,10-4.72,12.25-9.33l-17.64-28.14c-3.12-2.12-12.71,31.37-12.55,35.1.09,2.1,5.38,9.09,7.18,9.46,1.01-.31,2.91-.31,3.69-.65ZM132.01,183.66c-2.71-1.9-6.82-3.85-9.67-5.9l-3.78,5.49,23.2,17.28,4.26-4.99c.17-.69-.88-2.21-1.34-2.58,3.51,1.59,9.25-7.63,9.37-9.7-.33-8.29-7-27.02-11.16-33.27-.83-.48-2.26-.13-2.84.76l-16.37,25.09.26,1.92,8.07,5.91Z"/>
    <path class="st1" d="M154.82,284.17l-.85-85.3c4.28-5.99-.36,86,.85,85.3Z"/>
    <path class="st6" d="M167.5,140.59c1.48-.78,7.03-4.75,8.49-3.86,4.18,10.05,21.55,25.08,32.52,24.98,10.21-.09,28.95-15.16,31.69-25.35,6.36,2.41,19.8,9.38,24.28,13.08-16.86,23.81-9.24,101.3-10.78,128.81h-91.27c-2.51-42.58,7.56-89.01-10.15-128.84.67-3.39,13.17-7.92,15.22-8.83ZM244.4,170.15h-20.28v13.94c0,2.62,7.38,9.31,9.85,9.55,2.23.21,10.43-6.8,10.43-8.7v-14.78Z"/>
    <path class="st2" d="M164.96,141.43l-14.35,6.76-2.52-6.72,31.64-14.41c2.29,10.97,15.27,25.04,26.42,26.84,14.11.71,26.63-14.61,31.06-26.81l30.79,14.41c-1.1,12.33-12.12-.04-18.53-.91-3.03-1.54-6.07-3.09-9.28-4.23-2.74,10.19-21.48,25.26-31.69,25.35-10.97.1-28.34-14.93-32.52-24.98-2.89-.85-8.05,4.75-11.02,4.7Z"/>
    <path class="st6" d="M132.01,183.66l-8.07-5.91-.26-1.92,16.37-25.09c.58-.89,2.01-1.24,2.84-.76,4.18,6.32,10.81,24.92,11.16,33.27-.13,2.07-5.86,11.29-9.37,9.7-3.07-2.51-9.25-6.89-12.68-9.29Z"/>
    <path class="st6" d="M273.14,192.11c-.78.34-2.68.33-3.69.65-1.8-.37-7.09-7.36-7.18-9.46-.16-3.73,9.43-37.22,12.55-35.1l17.64,28.14c-2.25,4.61-8.54,6.25-12.25,9.33-1.8,1.29-4.97,5.54-7.06,6.45Z"/>
    <path class="st5" d="M226.65,129.61c-.26,6.03-12.85,16.53-18.23,16.88-5.22.34-17.87-10.89-18.96-16.45,3.93-.54,7.58,1.72,11.42,2.1,8.64.84,17.48-.23,25.76-2.52Z"/>
    <path class="st5" d="M132.01,183.66c3.49,3.13,12.96,7.54,14.02,11.87,0,0-4.26,4.99-4.26,4.99l-23.2-17.28,3.78-5.49c2.85,2.05,6.96,4,9.67,5.9Z"/>
    <path class="st5" d="M273.14,192.11l19.22-13.39c2.72-.56,3.67,2.92,5.13,4.53l-22.62,16.98-5.1-5.16c1.3-.68,2.4-2.22,3.37-2.95Z"/>
    <path class="st2" d="M244.4,170.15v14.78c0,1.9-8.2,8.91-10.43,8.7-2.47-.24-9.85-6.92-9.85-9.55v-13.94h20.28Z"/>
    <path class="st7" d="M167.5,140.59l-1.69.84c.56-.29,1.15-.56,1.69-.84Z"/>
  </g>
  <path class="st4" d="M435.23,396.84c-20.86-23.82-47.5-45.19-68.92-68.79-5.58-4.72-12.97-4.53-18.92-.91-6.16,7.24-14.15,15.87-24.02,24.81l.14.14c-4.95,5.07-5.88,12.81-1.54,18.58l74.35,74.34c33.15,21.66,65.94-17.3,38.91-48.17ZM419.53,410.84l-66.3-67.23c-.59-2.28.83-5.47,3.15-6.14,1.45-.42,2.88-.36,4.09.65l66.33,66.29c2.96,4.88-2.71,9.28-7.27,6.42Z"/>
  <path class="st2" d="M360.47,338.12c-1.21-1.01-2.63-1.07-4.09-.65-2.32.67-3.74,3.86-3.15,6.14l66.3,67.23c4.57,2.85,10.23-1.55,7.27-6.42l-66.33-66.29Z"/>
  <circle class="st3" cx="208.01" cy="201.96" r="153.24"/>
</svg>